<svg width="32" height="32" viewBox="0 0 32 32" fill="none" xmlns="http://www.w3.org/2000/svg">
  <!-- 背景圆形 -->
  <circle cx="16" cy="16" r="14" fill="#3B82F6" stroke="white" stroke-width="2"/>
  
  <!-- 海滩图标 -->
  <g transform="translate(8, 8)">
    <!-- 太阳 -->
    <circle cx="5" cy="5" r="2" fill="#FCD34D" stroke="white" stroke-width="0.5"/>
    <path d="M5 1v1M5 8v1M1 5h1M8 5h1M2.5 2.5l0.7 0.7M6.8 6.8l0.7 0.7M2.5 7.5l0.7-0.7M6.8 3.2l0.7-0.7" stroke="#FCD34D" stroke-width="0.5" stroke-linecap="round"/>
    
    <!-- 海浪 -->
    <path d="M1 12c2-1 4 1 6-1s4 1 6-1" stroke="#60A5FA" stroke-width="1.5" fill="none" stroke-linecap="round"/>
    <path d="M1 14c2-1 4 1 6-1s4 1 6-1" stroke="#93C5FD" stroke-width="1" fill="none" stroke-linecap="round"/>
  </g>
  
  <!-- 底部指针 -->
  <path d="M16 28 L12 24 L20 24 Z" fill="#3B82F6" stroke="white" stroke-width="1"/>
</svg>