<svg width="32" height="32" viewBox="0 0 32 32" fill="none" xmlns="http://www.w3.org/2000/svg">
  <!-- 背景圆形 -->
  <circle cx="16" cy="16" r="14" fill="#06B6D4" stroke="white" stroke-width="2"/>
  
  <!-- 码头图标 -->
  <g transform="translate(6, 6)">
    <!-- 码头平台 -->
    <rect x="2" y="12" width="16" height="3" fill="#92400E" stroke="white" stroke-width="0.5"/>
    
    <!-- 支柱 -->
    <line x1="5" y1="12" x2="5" y2="18" stroke="#92400E" stroke-width="2"/>
    <line x1="10" y1="12" x2="10" y2="18" stroke="#92400E" stroke-width="2"/>
    <line x1="15" y1="12" x2="15" y2="18" stroke="#92400E" stroke-width="2"/>
    
    <!-- 船只 -->
    <ellipse cx="8" cy="8" rx="4" ry="2" fill="white" stroke="#0369A1" stroke-width="1"/>
    <line x1="8" y1="6" x2="8" y2="2" stroke="#0369A1" stroke-width="1"/>
    <path d="M8 2 L6 4 L10 4 Z" fill="#EF4444"/>
    
    <!-- 水波纹 -->
    <path d="M1 16c2-0.5 4 0.5 6-0.5s4 0.5 6-0.5s4 0.5 6-0.5" stroke="#67E8F9" stroke-width="1" fill="none" stroke-linecap="round"/>
    <path d="M1 18c2-0.5 4 0.5 6-0.5s4 0.5 6-0.5s4 0.5 6-0.5" stroke="#A5F3FC" stroke-width="0.8" fill="none" stroke-linecap="round"/>
  </g>
  
  <!-- 底部指针 -->
  <path d="M16 28 L12 24 L20 24 Z" fill="#06B6D4" stroke="white" stroke-width="1"/>
</svg>